<svg width="164" height="32" viewBox="0 0 164 32" fill="none" xmlns="http://www.w3.org/2000/svg">
<path d="M31.4399 13.8215C32.5048 12.7583 31.9724 10.8977 30.5082 10.6319L21.7234 9.30291L17.9965 1.19609C17.1979 -0.398696 15.2014 -0.398696 14.4028 1.19609L10.4097 9.30291L1.49178 10.6319C0.0276434 10.8977 -0.504768 12.7583 0.560055 13.8215L6.949 20.4664C6.949 20.4664 6.949 20.4664 6.949 20.5993L5.48487 29.5035C5.21866 31.2312 6.949 32.5602 8.41313 31.7628L15.8669 27.51C15.8669 27.51 15.8669 27.51 16 27.51L23.4538 31.6299C24.9179 32.4273 26.6482 31.0983 26.382 29.3706L24.9179 20.4664C24.9179 20.4664 24.9179 20.4664 24.9179 20.3335L31.4399 13.8215Z" fill="white"/>
<path d="M64.4399 13.8215C65.5048 12.7583 64.9724 10.8977 63.5082 10.6319L54.7234 9.30291L50.9965 1.19609C50.1979 -0.398696 48.2014 -0.398696 47.4028 1.19609L43.4097 9.30291L34.4918 10.6319C33.0276 10.8977 32.4952 12.7583 33.5601 13.8215L39.949 20.4664C39.949 20.4664 39.949 20.4664 39.949 20.5993L38.4849 29.5035C38.2187 31.2312 39.949 32.5602 41.4131 31.7628L48.8669 27.51C48.8669 27.51 48.8669 27.51 49 27.51L56.4538 31.6299C57.9179 32.4273 59.6482 31.0983 59.382 29.3706L57.9179 20.4664C57.9179 20.4664 57.9179 20.4664 57.9179 20.3335L64.4399 13.8215Z" fill="white"/>
<path d="M97.4399 13.8215C98.5048 12.7583 97.9724 10.8977 96.5082 10.6319L87.7234 9.30291L83.9965 1.19609C83.1979 -0.398696 81.2014 -0.398696 80.4028 1.19609L76.4097 9.30291L67.4918 10.6319C66.0276 10.8977 65.4952 12.7583 66.5601 13.8215L72.949 20.4664C72.949 20.4664 72.949 20.4664 72.949 20.5993L71.4849 29.5035C71.2187 31.2312 72.949 32.5602 74.4131 31.7628L81.8669 27.51C81.8669 27.51 81.8669 27.51 82 27.51L89.4538 31.6299C90.9179 32.4273 92.6482 31.0983 92.382 29.3706L90.9179 20.4664C90.9179 20.4664 90.9179 20.4664 90.9179 20.3335L97.4399 13.8215Z" fill="white"/>
<path d="M130.44 13.8215C131.505 12.7583 130.972 10.8977 129.508 10.6319L120.723 9.30291L116.997 1.19609C116.198 -0.398696 114.201 -0.398696 113.403 1.19609L109.41 9.30291L100.492 10.6319C99.0276 10.8977 98.4952 12.7583 99.5601 13.8215L105.949 20.4664C105.949 20.4664 105.949 20.4664 105.949 20.5993L104.485 29.5035C104.219 31.2312 105.949 32.5602 107.413 31.7628L114.867 27.51C114.867 27.51 114.867 27.51 115 27.51L122.454 31.6299C123.918 32.4273 125.648 31.0983 125.382 29.3706L123.918 20.4664C123.918 20.4664 123.918 20.4664 123.918 20.3335L130.44 13.8215Z" fill="white"/>
<path d="M163.44 13.8215C164.505 12.7583 163.972 10.8977 162.508 10.6319L153.723 9.30291L149.997 1.19609C149.198 -0.398696 147.201 -0.398696 146.403 1.19609L142.41 9.30291L133.492 10.6319C132.028 10.8977 131.495 12.7583 132.56 13.8215L138.949 20.4664C138.949 20.4664 138.949 20.4664 138.949 20.5993L137.485 29.5035C137.219 31.2312 138.949 32.5602 140.413 31.7628L147.867 27.51C147.867 27.51 147.867 27.51 148 27.51L155.454 31.6299C156.918 32.4273 158.648 31.0983 158.382 29.3706L156.918 20.4664C156.918 20.4664 156.918 20.4664 156.918 20.3335L163.44 13.8215Z" fill="white"/>
</svg>
